<?xml version="1.0" encoding="utf-8"?>
<!-- Generator: Adobe Illustrator 17.0.0, SVG Export Plug-In . SVG Version: 6.00 Build 0)  -->
<!DOCTYPE svg PUBLIC "-//W3C//DTD SVG 1.1//EN" "http://www.w3.org/Graphics/SVG/1.1/DTD/svg11.dtd">
<svg version="1.1" id="Layer_1" xmlns="http://www.w3.org/2000/svg" xmlns:xlink="http://www.w3.org/1999/xlink" x="0px" y="0px"
	 width="1570px" height="554px" viewBox="0 0 1570 554" enable-background="new 0 0 1570 554" xml:space="preserve">
<g>
	<path fill="#E55725" d="M483.684,468.89h-62.259l-96.295-326.579v327.165h-56.448V59.054h90.482l95.465,327.753l92.143-327.753
		h90.482v410.423h-61.429V139.38L483.684,468.89z"/>
</g>
<g>
	<path d="M698.921,422.526l-8.023,40.442h-21.394l39.816-200.774h33.577l39.816,200.774h-23.177l-8.022-40.442H698.921z
		 M701.892,403.309h46.353l-23.474-115.875L701.892,403.309z"/>
	<path d="M907.809,310.667v18.07h-21.988v-19.217c0-18.07-7.428-28.969-24.365-28.969c-16.64,0-24.365,10.899-24.365,28.969v106.123
		c0,18.07,7.725,28.969,24.365,28.969c16.937,0,24.365-10.899,24.365-28.969v-26.1h21.988v24.953
		c0,30.403-14.856,50.48-46.947,50.48c-31.794,0-46.65-20.077-46.65-50.48V310.667c0-30.403,14.856-50.48,46.65-50.48
		C892.953,260.186,907.809,280.264,907.809,310.667z"/>
	<path d="M967.53,372.62v90.349h-23.177V262.194h23.177v90.349h51.108v-90.349h23.177v200.774h-23.177V372.62H967.53z"/>
	<path d="M1104.21,262.194v200.774h-23.177V262.194H1104.21z"/>
	<path d="M1163.931,462.968h-20.8V262.194h29.416l48.137,145.131V262.194h20.502v200.774h-24.068l-53.188-162.341V462.968z"/>
	<path d="M1303.882,422.526l-8.023,40.442h-21.394l39.816-200.774h33.577l39.816,200.774h-23.177l-8.022-40.442H1303.882z
		 M1306.853,403.309h46.353l-23.474-115.875L1306.853,403.309z"/>
</g>
<g>
	<polygon points="278.357,511.768 264.565,511.768 263.336,498.956 279.586,498.956 	"/>
	<polygon points="303.818,511.768 290.027,511.768 288.798,498.956 305.048,498.956 	"/>
	<polygon points="329.28,511.768 315.488,511.768 314.259,498.956 330.509,498.956 	"/>
	<polygon points="354.741,511.768 340.949,511.768 339.72,498.956 355.97,498.956 	"/>
	<polygon points="380.202,511.768 366.411,511.768 365.182,498.956 381.432,498.956 	"/>
	<polygon points="405.664,511.768 391.872,511.768 390.643,498.956 406.893,498.956 	"/>
	<polygon points="431.125,511.768 417.333,511.768 416.104,498.956 432.354,498.956 	"/>
	<polygon points="456.586,511.768 442.795,511.768 441.566,498.956 457.816,498.956 	"/>
	<polygon points="482.048,511.768 468.256,511.768 467.027,498.956 483.277,498.956 	"/>
	<polygon points="507.509,511.768 493.717,511.768 492.488,498.956 508.738,498.956 	"/>
	<polygon points="532.97,511.768 519.179,511.768 517.95,498.956 534.2,498.956 	"/>
	<polygon points="558.432,511.768 544.64,511.768 543.411,498.956 559.661,498.956 	"/>
	<polygon points="583.893,511.768 570.101,511.768 568.872,498.956 585.122,498.956 	"/>
	<polygon points="609.354,511.768 595.563,511.768 594.334,498.956 610.584,498.956 	"/>
	<polygon points="634.816,511.768 621.024,511.768 619.795,498.956 636.045,498.956 	"/>
	<polygon points="660.277,511.768 646.485,511.768 645.256,498.956 661.506,498.956 	"/>
	<polygon points="685.738,511.768 671.947,511.768 670.718,498.956 686.968,498.956 	"/>
	<polygon points="711.2,511.768 697.408,511.768 696.179,498.956 712.429,498.956 	"/>
	<polygon points="736.661,511.768 722.869,511.768 721.64,498.956 737.89,498.956 	"/>
	<polygon points="762.122,511.768 748.331,511.768 747.102,498.956 763.352,498.956 	"/>
	<polygon points="787.584,511.768 773.792,511.768 772.563,498.956 788.813,498.956 	"/>
	<polygon points="813.045,511.768 799.253,511.768 798.024,498.956 814.274,498.956 	"/>
	<polygon points="838.506,511.768 824.715,511.768 823.485,498.956 839.735,498.956 	"/>
	<polygon points="863.968,511.768 850.176,511.768 848.947,498.956 865.197,498.956 	"/>
	<polygon points="889.429,511.768 875.637,511.768 874.408,498.956 890.658,498.956 	"/>
	<polygon points="914.89,511.768 901.099,511.768 899.869,498.956 916.119,498.956 	"/>
	<polygon points="940.352,511.768 926.56,511.768 925.331,498.956 941.581,498.956 	"/>
	<polygon points="965.813,511.768 952.021,511.768 950.792,498.956 967.042,498.956 	"/>
	<polygon points="991.274,511.768 977.483,511.768 976.253,498.956 992.503,498.956 	"/>
	<polygon points="1016.736,511.768 1002.944,511.768 1001.715,498.956 1017.965,498.956 	"/>
	<polygon points="1042.197,511.768 1028.405,511.768 1027.176,498.956 1043.426,498.956 	"/>
	<polygon points="1067.658,511.768 1053.867,511.768 1052.637,498.956 1068.887,498.956 	"/>
	<polygon points="1093.12,511.768 1079.328,511.768 1078.099,498.956 1094.349,498.956 	"/>
	<polygon points="1118.581,511.768 1104.789,511.768 1103.56,498.956 1119.81,498.956 	"/>
	<polygon points="1144.042,511.768 1130.25,511.768 1129.021,498.956 1145.271,498.956 	"/>
	<polygon points="1169.504,511.768 1155.712,511.768 1154.483,498.956 1170.733,498.956 	"/>
	<line x1="239.081" y1="514.243" x2="252.061" y2="514.967"/>
	<g>
		<rect x="258.431" y="485.027" width="1218.031" height="13.973"/>
		<rect x="257.431" y="485.027" width="1" height="13.973"/>
		<g>
			<path d="M238.242,50.978c-4.306,0.374-8.577,0.865-12.812,1.472l-0.002,12.05c-3.082,0.467-6.138,1.009-9.176,1.603
				l-4.091-11.367c-4.227,0.861-8.409,1.848-12.549,2.937l1.374,11.992c-3.005,0.817-5.986,1.692-8.938,2.632l-5.352-10.811
				c-4.095,1.34-8.144,2.783-12.135,4.343l2.732,11.758c-2.889,1.156-5.751,2.365-8.577,3.638l-6.545-10.123
				c-3.913,1.801-7.765,3.711-11.556,5.721l4.05,11.357c-2.732,1.477-5.425,3.017-8.086,4.606l-7.671-9.329
				c-3.68,2.236-7.284,4.584-10.826,7.017l5.323,10.83c-2.541,1.775-5.041,3.603-7.501,5.482l-8.675-8.385
				c-3.402,2.641-6.732,5.368-9.978,8.191l6.527,10.161c-2.319,2.049-4.598,4.142-6.827,6.286l-9.567-7.336
				c-3.08,3.009-6.082,6.098-8.99,9.275l7.636,9.342c-2.07,2.297-4.096,4.634-6.068,7.017l-10.339-6.196
				c-2.718,3.338-5.342,6.754-7.873,10.243l8.642,8.401c-1.794,2.515-3.529,5.075-5.218,7.668l-11-4.987
				c-2.319,3.622-4.528,7.32-6.646,11.077l9.553,7.369c-1.495,2.701-2.932,5.438-4.315,8.208l-11.489-3.698
				c-1.889,3.861-3.68,7.777-5.355,11.755l10.344,6.24c-1.175,2.852-2.298,5.731-3.354,8.643l-11.822-2.362
				c-1.432,4.05-2.758,8.15-3.967,12.3l10.969,5.011c-0.837,2.963-1.605,5.954-2.319,8.967l-12.029-1
				c-0.957,4.185-1.79,8.417-2.516,12.686l11.478,3.732c-0.49,3.03-0.919,6.081-1.283,9.152l-12.054,0.377
				c-0.473,4.267-0.836,8.567-1.072,12.902l11.827,2.399c-0.143,3.058-0.22,6.133-0.236,9.222l-11.939,1.75
				c0.012,4.346,0.151,8.661,0.4,12.948l12.022,1.035c0.203,3.079,0.467,6.141,0.796,9.184l-11.657,3.098
				c0.501,4.311,1.114,8.587,1.85,12.822l12.057-0.342c0.552,3.035,1.169,6.047,1.845,9.036l-11.234,4.409
				c0.99,4.221,2.103,8.393,3.321,12.521l11.942-1.715c0.895,2.947,1.854,5.867,2.869,8.76l-10.66,5.662
				c1.466,4.075,3.038,8.1,4.723,12.066l11.684-3.069c1.226,2.82,2.502,5.612,3.842,8.369l-9.932,6.831
				c1.924,3.88,3.949,7.701,6.081,11.453l11.243-4.375c1.537,2.656,3.129,5.276,4.773,7.859l-9.093,7.923
				c2.354,3.636,4.813,7.197,7.362,10.688l10.666-5.626c1.825,2.458,3.706,4.872,5.631,7.249l-8.139,8.917
				c2.751,3.345,5.602,6.604,8.534,9.787l9.963-6.81c2.089,2.232,4.223,4.419,6.403,6.562l-7.064,9.779
				c3.112,3.011,6.299,5.943,9.576,8.776l9.129-7.907c2.327,1.98,4.689,3.917,7.098,5.799l-5.899,10.513
				c3.431,2.638,6.935,5.185,10.514,7.63l8.156-8.884c2.536,1.703,5.109,3.352,7.719,4.95l-4.666,11.126
				c3.705,2.228,7.481,4.35,11.318,6.372l7.089-9.753c2.712,1.402,5.461,2.742,8.238,4.032l-3.371,11.598
				c3.931,1.789,7.924,3.465,11.969,5.035l5.938-10.511c2.853,1.081,5.733,2.108,8.641,3.072l-2.024,11.891
				c4.108,1.325,8.262,2.546,12.467,3.643l4.701-11.118c2.955,0.746,5.932,1.434,8.933,2.058l-0.656,12.043
				c4.229,0.844,8.502,1.566,12.811,2.176l3.4-11.574c3.013,0.402,6.047,0.738,9.098,1.016l0.722,12.044
				c4.296,0.357,8.622,0.606,12.981,0.724l2.061-11.896c1.433,0.028,2.866,0.055,4.305,0.055c0.001,0,0.003,0,0.004,0V499h-1
				v-13.973h1c-112.942,0-204.5-91.558-204.5-204.5c0-107.069,82.288-194.902,187.069-203.749V62.694L238.242,50.978z"/>
		</g>
	</g>
	<polygon points="1194.965,511.768 1181.173,511.768 1179.944,498.956 1196.194,498.956 	"/>
	<polygon points="1220.426,511.768 1206.635,511.768 1205.405,498.956 1221.655,498.956 	"/>
	<polygon points="1245.887,511.768 1232.096,511.768 1230.867,498.956 1247.117,498.956 	"/>
	<polygon points="1271.349,511.768 1257.557,511.768 1256.328,498.956 1272.578,498.956 	"/>
	<polygon points="1296.81,511.768 1283.018,511.768 1281.789,498.956 1298.039,498.956 	"/>
	<polygon points="1322.271,511.768 1308.48,511.768 1307.251,498.956 1323.501,498.956 	"/>
	<polygon points="1347.733,511.768 1333.941,511.768 1332.712,498.956 1348.962,498.956 	"/>
	<polygon points="1373.194,511.768 1359.402,511.768 1358.173,498.956 1374.423,498.956 	"/>
	<polygon points="1398.655,511.768 1384.864,511.768 1383.635,498.956 1399.885,498.956 	"/>
	<polygon points="1424.31,511.768 1410.518,511.768 1409.289,498.956 1425.539,498.956 	"/>
	<polygon points="1449.771,511.768 1435.98,511.768 1434.751,498.956 1451.001,498.956 	"/>
	<polygon points="1475.233,511.768 1461.441,511.768 1460.212,498.956 1476.462,498.956 	"/>
</g>
<rect x="661.506" y="213.596" width="738.378" height="17.737"/>
<path d="M1536,497.331c-68.92-16.44-131.173-142.159-131.173-274.279c0-3.167-0.02-29.909,0.04-33.049l-14.19,4.997
	c-0.059,3.141-0.1,24.886-0.1,28.052c0,141.584,59.613,258.264,136.422,274.279H1536z"/>
</svg>
