<?xml version="1.0" encoding="utf-8"?>
<!-- Generator: Adobe Illustrator 17.0.0, SVG Export Plug-In . SVG Version: 6.00 Build 0)  -->
<!DOCTYPE svg PUBLIC "-//W3C//DTD SVG 1.1//EN" "http://www.w3.org/Graphics/SVG/1.1/DTD/svg11.dtd">
<svg version="1.1" id="Layer_1" xmlns="http://www.w3.org/2000/svg" xmlns:xlink="http://www.w3.org/1999/xlink" x="0px" y="0px"
	 width="488px" height="482px" viewBox="0 0 488 482" enable-background="new 0 0 488 482" xml:space="preserve">
<g>
	<path d="M473.135,255.421c0.275-4.604,0.432-9.24,0.432-13.912c0-0.194-0.007-0.387-0.007-0.581l-12.516-1.811
		c-0.026-2.467-0.09-4.925-0.198-7.372l12.391-2.536c-0.256-4.856-0.676-9.668-1.229-14.439l-12.613-0.372
		c-0.305-2.454-0.658-4.894-1.045-7.322l12.008-3.928c-0.805-4.783-1.749-9.518-2.844-14.196l-12.592,1.07
		c-0.585-2.407-1.203-4.801-1.868-7.176l11.479-5.27c-1.346-4.65-2.836-9.239-4.463-13.762l-12.372,2.495
		c-0.859-2.327-1.766-4.63-2.701-6.919l10.809-6.547c-1.869-4.459-3.882-8.841-6.019-13.152l-12.003,3.888
		c-1.12-2.213-2.278-4.403-3.471-6.572l9.976-7.724c-2.365-4.211-4.854-8.343-7.471-12.384l-11.488,5.234
		c-1.365-2.07-2.754-4.123-4.187-6.142l9.022-8.803c-2.827-3.911-5.766-7.736-8.828-11.456l-10.816,6.509
		c-1.591-1.901-3.214-3.774-4.869-5.619l7.97-9.787c-3.25-3.562-6.617-7.014-10.083-10.365l-9.985,7.685
		c-1.798-1.709-3.633-3.379-5.489-5.027l6.802-10.63c-3.63-3.167-7.364-6.215-11.189-9.152l-9.043,8.772
		c-1.983-1.496-3.993-2.957-6.027-4.385l5.54-11.325c-3.961-2.731-8.009-5.343-12.144-7.826l-7.991,9.754
		c-2.143-1.263-4.302-2.502-6.492-3.692l4.209-11.871c-4.24-2.257-8.554-4.396-12.947-6.389l-6.83,10.606
		c-2.275-1.009-4.571-1.98-6.886-2.913l2.834-12.296c-4.465-1.753-9.003-3.359-13.599-4.836l-5.566,11.294
		c-2.376-0.741-4.774-1.43-7.184-2.091l1.412-12.526c-4.632-1.227-9.321-2.314-14.064-3.254l-4.248,11.872
		c-2.443-0.463-4.896-0.898-7.367-1.278l-0.025-12.588c-4.738-0.687-9.522-1.232-14.349-1.626l-2.865,12.269
		c-2.473-0.18-4.96-0.309-7.456-0.406l-1.462-12.521c-2.358-0.072-4.722-0.12-7.098-0.12c-2.459,0-4.906,0.052-7.347,0.129
		l-1.448,12.52c-2.495,0.099-4.983,0.229-7.456,0.412L224.9,12.769c-4.827,0.398-9.611,0.946-14.348,1.638L210.54,27
		c-2.47,0.383-4.923,0.818-7.365,1.283l-4.261-11.869c-4.742,0.945-9.429,2.04-14.06,3.272l1.425,12.523
		c-2.409,0.663-4.805,1.358-7.18,2.102l-5.579-11.29c-4.595,1.482-9.133,3.089-13.596,4.848l2.848,12.297
		c-2.314,0.935-4.609,1.906-6.883,2.918l-6.839-10.596c-4.392,1.999-8.705,4.139-12.943,6.401l4.223,11.871
		c-2.188,1.192-4.346,2.431-6.487,3.696l-8.002-9.747c-4.133,2.487-8.177,5.107-12.135,7.842l5.551,11.317
		c-2.033,1.431-4.039,2.896-6.019,4.393l-9.054-8.764c-3.823,2.941-7.553,5.995-11.179,9.167l6.812,10.621
		c-1.853,1.649-3.688,3.319-5.484,5.03l-9.99-7.672c-3.463,3.355-6.829,6.809-10.076,10.374l7.983,9.781
		c-1.652,1.846-3.274,3.719-4.863,5.621l-10.82-6.496c-3.059,3.724-5.996,7.55-8.819,11.464l9.034,8.796
		c-1.431,2.02-2.819,4.072-4.181,6.143l-11.496-5.223c-2.614,4.045-5.096,8.181-7.457,12.395l9.983,7.712
		c-1.19,2.169-2.342,4.361-3.46,6.575l-12.009-3.876c-2.133,4.313-4.14,8.7-6.004,13.161l10.814,6.534
		c-0.933,2.289-1.839,4.591-2.695,6.918l-12.37-2.481c-1.622,4.526-3.111,9.116-4.452,13.768l11.489,5.26
		c-0.662,2.374-1.279,4.767-1.861,7.174l-12.595-1.057c-1.091,4.679-2.027,9.417-2.827,14.201l12.01,3.915
		c-0.384,2.427-0.73,4.867-1.033,7.321l-12.615,0.385c-0.549,4.772-0.966,9.585-1.217,14.442l12.398,2.524
		c-0.105,2.446-0.168,4.903-0.192,7.369l-12.516,1.825c0,0.114-0.004,0.227-0.004,0.342c0,4.754,0.162,9.47,0.447,14.153
		l12.589,1.093c0.171,2.458,0.375,4.906,0.627,7.34l-12.209,3.235c0.541,4.831,1.22,9.62,2.056,14.355l12.65-0.35
		c0.449,2.42,0.941,4.825,1.47,7.217l-11.79,4.617c1.088,4.732,2.337,9.402,3.713,14.018l12.516-1.788
		c0.723,2.35,1.49,4.681,2.291,6.996l-11.174,5.924c1.623,4.572,3.381,9.079,5.281,13.512l12.251-3.208
		c0.986,2.246,1.998,4.478,3.057,6.684l-10.422,7.157c2.136,4.353,4.398,8.633,6.796,12.826l11.81-4.585
		c1.233,2.113,2.502,4.202,3.803,6.268l-9.558,8.315c2.618,4.081,5.374,8.065,8.238,11.964l11.193-5.893
		c1.462,1.954,2.967,3.874,4.493,5.776l-8.543,9.345c3.065,3.757,6.248,7.413,9.541,10.967l10.458-7.136
		c1.671,1.772,3.369,3.518,5.097,5.233l-7.418,10.253c3.469,3.385,7.039,6.666,10.716,9.828l9.586-8.291
		c1.859,1.57,3.737,3.118,5.648,4.626l-6.203,11.035c3.828,2.968,7.747,5.823,11.761,8.549l8.58-9.331
		c2.024,1.349,4.072,2.662,6.143,3.944l-4.915,11.694c4.136,2.511,8.365,4.883,12.667,7.135l7.449-10.233
		c2.164,1.109,4.357,2.17,6.563,3.208l-3.547,12.17c4.392,2.021,8.858,3.905,13.394,5.651l6.243-11.031
		c2.276,0.854,4.566,1.68,6.878,2.458l-2.135,12.481c4.59,1.502,9.238,2.878,13.95,4.093l4.951-11.686
		c2.355,0.586,4.724,1.133,7.108,1.64l-0.699,12.668c4.727,0.965,9.512,1.768,14.339,2.437l3.58-12.151
		c2.401,0.312,4.815,0.579,7.24,0.812l0.748,12.645c4.804,0.42,9.645,0.706,14.529,0.826l2.175-12.502
		c1.175,0.019,2.349,0.045,3.529,0.045c1.253,0,2.499-0.026,3.747-0.047l2.189,12.501c4.884-0.124,9.724-0.418,14.528-0.843
		l0.735-12.643c2.425-0.235,4.838-0.508,7.239-0.823l3.593,12.149c4.827-0.674,9.611-1.482,14.336-2.451l-0.713-12.668
		c2.384-0.51,4.754-1.058,7.108-1.646l4.962,11.677c4.711-1.22,9.358-2.597,13.947-4.104l-2.147-12.477
		c2.312-0.781,4.599-1.613,6.875-2.469l6.255,11.026c4.534-1.751,8.997-3.641,13.387-5.666l-3.56-12.164
		c2.205-1.04,4.395-2.106,6.559-3.218l7.461,10.227c4.299-2.256,8.525-4.632,12.659-7.147l-4.927-11.689
		c2.07-1.284,4.119-2.598,6.142-3.949l8.587,9.319c4.012-2.73,7.93-5.586,11.754-8.557l-6.216-11.031
		c1.91-1.51,3.789-3.058,5.646-4.631l9.596,8.282c3.674-3.165,7.239-6.451,10.704-9.839l-7.428-10.243
		c1.728-1.718,3.422-3.468,5.091-5.242l10.467,7.127c3.288-3.557,6.466-7.217,9.527-10.977l-8.552-9.335
		c1.524-1.905,3.026-3.828,4.487-5.784l11.2,5.881c2.86-3.901,5.61-7.888,8.224-11.971l-9.567-8.305
		c1.3-2.069,2.569-4.159,3.8-6.274l11.811,4.572c2.393-4.195,4.654-8.475,6.785-12.83l-10.433-7.148
		c1.057-2.207,2.069-4.44,3.053-6.688l12.256,3.196c1.895-4.434,3.646-8.944,5.264-13.516l-11.179-5.911
		c0.798-2.317,1.56-4.651,2.281-7.002l12.519,1.775c1.371-4.616,2.612-9.288,3.696-14.021l-11.793-4.604
		c0.527-2.393,1.018-4.799,1.465-7.221l12.646,0.336c0.831-4.736,1.508-9.524,2.044-14.355l-12.211-3.222
		c0.25-2.435,0.447-4.886,0.616-7.345L473.135,255.421z M244.028,446.011c-112.964,0-204.539-91.575-204.539-204.539
		S131.064,36.934,244.028,36.934s204.539,91.575,204.539,204.539S356.992,446.011,244.028,446.011z"/>
</g>
<g>
	<path fill="#F8981D" d="M265.477,384.371h-43.478l-67.247-228.065V384.78h-39.42V98.164h63.188l66.667,228.885l64.348-228.885
		h63.188v286.617h-42.898V154.259L265.477,384.371z"/>
</g>
</svg>
